<svg width="252" height="253" viewBox="0 0 252 253" fill="none" xmlns="http://www.w3.org/2000/svg">
<rect width="252" height="253" fill="#FD8207"/>
<path opacity="0.99" d="M62.1357 56.7021L71.2129 56.5752C70.8109 59.9818 69.6577 62.9017 67.7534 65.335C65.8703 67.7471 63.5005 69.5879 60.644 70.8574C57.7876 72.1058 54.6878 72.6982 51.3447 72.6348C48.2555 72.5713 45.653 71.9154 43.5371 70.667C41.4212 69.3975 39.7603 67.7048 38.5542 65.5889C37.3481 63.473 36.5547 61.1138 36.1738 58.5112C35.793 55.9087 35.7718 53.2427 36.1104 50.5132L36.5547 47.3076C36.9779 44.43 37.7502 41.6476 38.8716 38.9604C40.0142 36.2733 41.5059 33.8823 43.3467 31.7876C45.1875 29.6929 47.3669 28.0425 49.8848 26.8364C52.4027 25.6304 55.2591 25.0591 58.4541 25.1226C61.7972 25.186 64.6219 25.9054 66.9282 27.2808C69.2557 28.6349 71.0436 30.5286 72.292 32.9619C73.5615 35.374 74.2703 38.1987 74.4185 41.436L65.1826 41.4043C65.2038 39.6904 64.9922 38.1882 64.5479 36.8975C64.1247 35.5856 63.3841 34.57 62.3262 33.8506C61.2682 33.11 59.8083 32.708 57.9463 32.6445C55.915 32.5811 54.1906 32.9831 52.7729 33.8506C51.3553 34.7181 50.181 35.8818 49.25 37.3418C48.3402 38.8018 47.6208 40.3993 47.0918 42.1343C46.584 43.8693 46.2031 45.5726 45.9492 47.2441L45.5049 50.5449C45.3356 51.9202 45.2192 53.4437 45.1558 55.1152C45.0923 56.7656 45.2298 58.342 45.5684 59.8442C45.9069 61.3465 46.5628 62.5949 47.5361 63.5894C48.5094 64.5627 49.9588 65.0811 51.8843 65.1445C53.7886 65.208 55.4284 64.9118 56.8037 64.2559C58.2002 63.5999 59.3322 62.6266 60.1997 61.3359C61.0884 60.0452 61.7337 58.5007 62.1357 56.7021ZM109.648 44.6099L108.347 52.0366H84.8921L86.1934 44.6099H109.648ZM92.2554 25.7891L84.2256 72H74.9263L82.9243 25.7891H92.2554ZM119.487 25.7891L111.457 72H102.221L110.219 25.7891H119.487ZM127.485 25.7891L143.767 25.8208C146.581 25.8631 149.13 26.3815 151.416 27.376C153.722 28.3704 155.51 29.8621 156.779 31.8511C158.07 33.84 158.61 36.3685 158.398 39.4365C158.186 41.9544 157.573 44.0809 156.557 45.8159C155.563 47.5509 154.219 49.0215 152.526 50.2275C150.855 51.4336 148.929 52.4704 146.75 53.3379L143.513 54.8931H128.469L129.738 47.4663L140.085 47.5298C141.63 47.5086 143.037 47.2124 144.306 46.6411C145.576 46.0698 146.623 45.2446 147.448 44.1655C148.295 43.0653 148.824 41.7323 149.035 40.1665C149.226 38.7912 149.13 37.5957 148.75 36.5801C148.39 35.5645 147.766 34.771 146.877 34.1997C145.988 33.6284 144.856 33.3216 143.481 33.2793L135.515 33.2476L128.786 72H119.487L127.485 25.7891ZM144.782 72L138.117 51.4019L147.48 51.3384L154.685 71.4922V72H144.782ZM177.822 25.7891L169.824 72H160.524L168.554 25.7891H177.822ZM203.879 59.6855C204.069 58.5641 203.974 57.6226 203.593 56.8608C203.234 56.078 202.683 55.422 201.943 54.8931C201.223 54.3429 200.409 53.8774 199.499 53.4966C198.61 53.1157 197.722 52.7666 196.833 52.4492C195.204 51.8145 193.596 51.0951 192.009 50.291C190.443 49.487 189.015 48.5348 187.724 47.4346C186.433 46.3132 185.428 45.0119 184.709 43.5308C183.99 42.0285 183.693 40.2723 183.82 38.2622C183.968 35.9771 184.614 33.9987 185.756 32.3271C186.899 30.6556 188.348 29.2909 190.104 28.2329C191.882 27.1538 193.807 26.3604 195.881 25.8525C197.976 25.3447 200.028 25.112 202.038 25.1543C204.916 25.1966 207.476 25.7996 209.719 26.9634C211.962 28.106 213.718 29.7352 214.987 31.8511C216.278 33.9458 216.881 36.4637 216.796 39.4048H207.592C207.677 38.0083 207.497 36.8022 207.053 35.7866C206.63 34.7498 205.942 33.9564 204.99 33.4062C204.059 32.835 202.863 32.5282 201.403 32.4858C200.155 32.4647 198.928 32.6657 197.722 33.0889C196.537 33.4909 195.511 34.1257 194.643 34.9932C193.797 35.8395 193.268 36.9398 193.056 38.2939C192.887 39.2884 193.024 40.1453 193.469 40.8647C193.934 41.5841 194.558 42.1978 195.341 42.7056C196.145 43.2134 196.992 43.6471 197.88 44.0068C198.79 44.3454 199.605 44.6522 200.324 44.9272C202.038 45.5409 203.688 46.2708 205.275 47.1172C206.883 47.9635 208.301 48.9686 209.528 50.1323C210.756 51.2749 211.697 52.6291 212.353 54.1948C213.009 55.7394 213.273 57.5379 213.146 59.5903C212.956 61.939 212.321 63.9491 211.242 65.6206C210.163 67.271 208.767 68.6252 207.053 69.6831C205.339 70.7199 203.466 71.4816 201.435 71.9683C199.404 72.4549 197.341 72.6877 195.246 72.6665C192.961 72.6242 190.813 72.2645 188.803 71.5874C186.793 70.9103 185.037 69.937 183.535 68.6675C182.032 67.3768 180.869 65.8005 180.043 63.9385C179.239 62.0553 178.869 59.9077 178.933 57.4956L188.232 57.5273C188.147 58.818 188.243 59.95 188.518 60.9233C188.814 61.8755 189.279 62.6795 189.914 63.3354C190.57 63.9914 191.374 64.4886 192.326 64.8271C193.299 65.1445 194.431 65.3138 195.722 65.335C196.971 65.335 198.177 65.1445 199.34 64.7637C200.504 64.3828 201.499 63.7798 202.324 62.9546C203.149 62.1082 203.667 61.0186 203.879 59.6855ZM51.6938 137.971L67.8486 101.789H78.4492L55.5977 148H48.5835L51.6938 137.971ZM47.5996 101.789L52.4556 138.796L52.5508 148H45.854L37.5703 101.789H47.5996ZM97.3018 110.168L78.7031 148H68.4834L93.1758 101.789H99.7139L97.3018 110.168ZM100.983 148L95.334 109.184L95.6831 101.789H101.809L110.537 148H100.983ZM103.332 130.798L102.031 138.256H78.2588L79.5601 130.798H103.332ZM159.414 101.789L151.384 148H142.37L129.58 116.674L124.152 148H114.853L122.851 101.789H131.896L144.719 133.146L150.146 101.789H159.414ZM47.9805 224H37.6973L39.0303 216.573L48.2661 216.637C51.1437 216.637 53.5664 215.96 55.5342 214.605C57.502 213.23 59.0465 211.432 60.168 209.21C61.3105 206.967 62.0828 204.544 62.4849 201.942L62.7705 199.688C62.9609 198.08 63.0244 196.451 62.9609 194.801C62.8975 193.129 62.5907 191.585 62.0405 190.167C61.5116 188.749 60.6652 187.596 59.5015 186.708C58.3377 185.819 56.7614 185.343 54.7725 185.279L44.2354 185.248L45.5366 177.789L55.0581 177.821C58.1473 177.884 60.8345 178.519 63.1196 179.725C65.4048 180.91 67.2773 182.518 68.7373 184.549C70.1973 186.581 71.2129 188.908 71.7842 191.532C72.3555 194.134 72.4718 196.874 72.1333 199.752L71.8794 202.005C71.4562 205.095 70.5781 207.983 69.2451 210.67C67.9333 213.357 66.23 215.706 64.1353 217.716C62.0617 219.705 59.6602 221.26 56.9307 222.381C54.2012 223.482 51.2178 224.021 47.9805 224ZM50.9956 177.789L42.9658 224H33.6665L41.6646 177.789H50.9956ZM92.5728 177.789L84.5747 224H75.2754L83.3052 177.789H92.5728ZM113.837 209.845L119.296 177.789H128.564L123.137 209.813C122.735 212.775 121.751 215.388 120.185 217.652C118.64 219.895 116.652 221.641 114.218 222.889C111.785 224.116 109.066 224.709 106.062 224.667C103.12 224.603 100.634 224 98.603 222.857C96.5718 221.694 95.0483 220.054 94.0327 217.938C93.0171 215.822 92.5728 213.304 92.6997 210.384L102.031 210.416C101.946 211.601 102.01 212.712 102.221 213.749C102.433 214.764 102.877 215.6 103.554 216.256C104.252 216.891 105.289 217.219 106.665 217.24C108.103 217.282 109.32 216.954 110.314 216.256C111.309 215.536 112.092 214.605 112.663 213.463C113.256 212.32 113.647 211.114 113.837 209.845ZM145.703 177.789L137.673 224H128.374L136.372 177.789H145.703ZM172.871 177.789L150.971 200.799L138.593 212.225L138.53 202.513L147.004 192.928L160.842 177.789H172.871ZM154.24 224L144.592 202.291L152.082 196.673L164.777 224H154.24Z" fill="white"/>
</svg>
